<?xml version="1.0" encoding="UTF-8"?>
<svg id="Capa_2" data-name="Capa 2" xmlns="http://www.w3.org/2000/svg" viewBox="0 0 548.59 118.14">
  <defs>
    <style>
      .cls-1 {
        fill: #1a2c4d;
      }

      .cls-2 {
        fill: #003cff;
      }
    </style>
  </defs>
  <g id="Capa_1-2" data-name="Capa 1">
    <g>
      <g>
        <polygon class="cls-1" points="135.37 88.6 149.04 88.6 149.04 67.08 176.38 67.08 176.38 56.11 149.04 56.11 149.04 40.5 180.01 40.5 180.01 29.53 135.37 29.53 135.37 88.6"/>
        <polygon class="cls-1" points="241.1 29.53 219.35 66.21 197.22 29.53 185.91 29.53 185.91 88.6 198.74 88.6 198.74 53.91 216.04 82.36 222.2 82.36 239.59 53.15 239.67 88.6 252.49 88.6 252.32 29.53 241.1 29.53"/>
        <path class="cls-1" d="M296.62,47.42c-3.83-3.26-9.2-4.89-16.12-4.89-3.6,0-7.14.48-10.63,1.43-3.49.96-6.47,2.31-8.95,4.05l4.73,9.2c1.63-1.29,3.61-2.32,5.95-3.08,2.33-.76,4.71-1.14,7.13-1.14,3.54,0,6.17.79,7.89,2.36,1.71,1.58,2.57,3.77,2.57,6.58h-10.46c-4.61,0-8.35.58-11.22,1.73-2.87,1.15-4.96,2.74-6.29,4.77-1.32,2.03-1.98,4.39-1.98,7.09s.67,4.92,2.03,7c1.35,2.08,3.29,3.73,5.82,4.94s5.57,1.81,9.11,1.81c3.99,0,7.26-.76,9.79-2.28,1.71-1.03,3.06-2.39,4.05-4.06v5.66h12.32v-25.91c0-6.92-1.91-12.01-5.74-15.27ZM285.4,78.86c-1.74,1.04-3.71,1.56-5.91,1.56-2.31,0-4.12-.49-5.44-1.48-1.32-.98-1.98-2.32-1.98-4.01,0-1.52.58-2.78,1.73-3.8,1.15-1.01,3.28-1.52,6.37-1.52h9.03v4.64c-.79,2.03-2.05,3.56-3.8,4.6Z"/>
        <path class="cls-1" d="M348.14,44.68c-2.84-1.43-6.06-2.15-9.66-2.15-3.88,0-7.34.82-10.38,2.45-1.79.96-3.34,2.18-4.64,3.63v-5.41h-12.57v45.4h13.16v-22.45c0-2.81.46-5.12,1.39-6.92.93-1.8,2.22-3.14,3.88-4.01,1.66-.87,3.53-1.31,5.61-1.31,2.92,0,5.19.87,6.79,2.62,1.6,1.74,2.41,4.44,2.41,8.1v23.96h13.16v-25.99c0-4.61-.82-8.4-2.45-11.35-1.63-2.95-3.87-5.15-6.71-6.58Z"/>
        <path class="cls-1" d="M400.25,47.42c-3.83-3.26-9.2-4.89-16.12-4.89-3.6,0-7.14.48-10.63,1.43-3.49.96-6.47,2.31-8.95,4.05l4.73,9.2c1.63-1.29,3.61-2.32,5.95-3.08,2.33-.76,4.71-1.14,7.13-1.14,3.54,0,6.17.79,7.89,2.36,1.71,1.58,2.57,3.77,2.57,6.58h-10.46c-4.61,0-8.35.58-11.22,1.73-2.87,1.15-4.96,2.74-6.29,4.77-1.32,2.03-1.98,4.39-1.98,7.09s.67,4.92,2.03,7c1.35,2.08,3.29,3.73,5.82,4.94s5.57,1.81,9.11,1.81c3.99,0,7.26-.76,9.79-2.28,1.71-1.03,3.06-2.39,4.05-4.06v5.66h12.32v-25.91c0-6.92-1.91-12.01-5.74-15.27ZM389.02,78.86c-1.74,1.04-3.71,1.56-5.91,1.56-2.31,0-4.12-.49-5.44-1.48-1.32-.98-1.98-2.32-1.98-4.01,0-1.52.58-2.78,1.73-3.8,1.15-1.01,3.28-1.52,6.37-1.52h9.03v4.64c-.79,2.03-2.05,3.56-3.8,4.6Z"/>
        <path class="cls-1" d="M449.19,48.96c-1.36-1.73-2.99-3.1-4.89-4.11-2.93-1.55-6.3-2.32-10.13-2.32-4.22,0-8.03.9-11.43,2.7-3.4,1.8-6.13,4.35-8.19,7.64-2.05,3.29-3.08,7.16-3.08,11.6s1.03,8.23,3.08,11.52c2.05,3.29,4.78,5.85,8.19,7.68,3.4,1.83,7.21,2.74,11.43,2.74,3.83,0,7.2-.79,10.13-2.36,1.6-.86,3-1.98,4.22-3.35v2c0,4.11-1.05,7.2-3.17,9.28-2.11,2.08-5.5,3.12-10.17,3.12-2.87,0-5.78-.46-8.73-1.39-2.95-.93-5.39-2.18-7.3-3.75l-5.23,9.45c2.64,2.08,5.95,3.64,9.92,4.68,3.97,1.04,8.09,1.56,12.36,1.56,8.21,0,14.51-2,18.9-5.99,4.39-4,6.58-10.21,6.58-18.65v-37.8h-12.49v5.76ZM447.16,70.29c-1.01,1.69-2.42,3-4.22,3.92-1.8.93-3.85,1.39-6.16,1.39s-4.36-.46-6.16-1.39c-1.8-.93-3.22-2.24-4.26-3.92-1.04-1.69-1.56-3.63-1.56-5.82s.52-4.2,1.56-5.86c1.04-1.66,2.46-2.95,4.26-3.88,1.8-.93,3.85-1.39,6.16-1.39s4.36.46,6.16,1.39c1.8.93,3.21,2.22,4.22,3.88,1.01,1.66,1.52,3.62,1.52,5.86s-.51,4.13-1.52,5.82Z"/>
        <path class="cls-1" d="M503.4,45.36c-3.57-1.88-7.58-2.83-12.03-2.83s-8.75,1-12.4,3c-3.66,2-6.54,4.75-8.65,8.27-2.11,3.52-3.16,7.55-3.16,12.11s1.07,8.51,3.21,12.02c2.14,3.52,5.16,6.29,9.07,8.31,3.91,2.03,8.45,3.04,13.63,3.04,4.11,0,7.73-.63,10.88-1.9s5.77-3.08,7.85-5.44l-7-7.59c-1.52,1.46-3.19,2.56-5.02,3.29-1.83.73-3.95,1.1-6.37,1.1-2.7,0-5.05-.49-7.05-1.48-2-.98-3.54-2.42-4.64-4.3-.6-1.02-1.01-2.14-1.29-3.33h34.32c.06-.56.11-1.17.17-1.81.05-.65.08-1.22.08-1.73,0-4.89-1.04-9.1-3.12-12.62-2.08-3.52-4.91-6.22-8.48-8.1ZM485.52,53.96c1.72-.98,3.7-1.48,5.95-1.48s4.22.49,5.91,1.48c1.69.98,3.01,2.35,3.97,4.09.63,1.15,1.04,2.46,1.25,3.88h-22.31c.22-1.41.61-2.7,1.23-3.84.96-1.77,2.29-3.15,4.01-4.13Z"/>
        <path class="cls-1" d="M537.71,45.02c-1.91,1.06-3.48,2.45-4.73,4.15v-5.97h-12.57v45.4h13.16v-21.43c0-4.33,1.11-7.52,3.33-9.58,2.22-2.05,5.13-3.08,8.73-3.08.51,0,.98.01,1.43.04.45.03.96.07,1.52.13v-12.15c-4.28,0-7.9.83-10.89,2.49Z"/>
      </g>
      <g>
        <g>
          <path class="cls-1" d="M66.7,41.74c0,1.94-1.57,3.51-3.51,3.51s-3.51-1.57-3.51-3.51,1.57-3.51,3.51-3.51,3.51,1.57,3.51,3.51Z"/>
          <path class="cls-1" d="M79.82,39.77c0,1.94-1.57,3.51-3.51,3.51s-3.51-1.57-3.51-3.51,1.57-3.51,3.51-3.51,3.51,1.57,3.51,3.51Z"/>
          <path class="cls-1" d="M91.45,36.84c0,1.94-1.57,3.51-3.51,3.51s-3.51-1.57-3.51-3.51,1.57-3.51,3.51-3.51,3.51,1.57,3.51,3.51Z"/>
        </g>
        <g>
          <circle class="cls-1" cx="61.74" cy="70.04" r="3.51"/>
          <circle class="cls-1" cx="74.87" cy="68.07" r="3.51"/>
          <circle class="cls-1" cx="86.5" cy="65.14" r="3.51"/>
        </g>
        <path class="cls-2" d="M53.14,0C22,0,.9,9.93,0,10.31c0,2.26,0,39.83,0,39.91C0,92.55,35.74,114.87,53.14,118.14c17.88-3.12,52.7-25.59,52.7-67.92V10.31c-.06-.03-21.7-10.31-52.7-10.31ZM84.74,86.8c-7.79,10.43-18.83,18.29-31.61,22.1v-23.25c16.1,0,27.22-2.32,35.32-4.41-1.14,1.93-2.38,3.78-3.71,5.57ZM92.71,72.52c-11.86,4.03-25.31,6.32-39.57,6.34v-18.33c15.72-.02,30.57-2.51,43.7-6.89-.38,6.63-1.81,12.98-4.13,18.89ZM96.94,45.85s-17.89,7.88-43.8,7.88v-24.73c24.28,0,41.89-6.21,43.8-6.85v23.71Z"/>
      </g>
    </g>
  </g>
</svg>